<svg xmlns="http://www.w3.org/2000/svg" viewBox="0 0 24 24">
  <path d="M7.05 17.575L7.05 17.575 7.05 17.575Q7.4 17.225 7.85 17.225 8.3 17.225 8.65 17.575L8.65 17.575 11.075 20 11.075 11.075 20 11.075 17.575 8.65Q17.225 8.3 17.225 7.85 17.225 7.4 17.575 7.05L17.575 7.05Q17.925 6.7 18.375 6.7 18.825 6.7 19.175 7.05L19.175 7.05 23.3 11.175Q23.65 11.525 23.825 11.963 24 12.4 24 12.875L24 12.875Q24 13.35 23.825 13.788 23.65 14.225 23.3 14.575L23.3 14.575 19.175 18.7Q18.825 19.05 18.375 19.05 17.925 19.05 17.575 18.7L17.575 18.7Q17.225 18.35 17.225 17.9 17.225 17.45 17.575 17.1L17.575 17.1 20 14.675 11.075 14.675 11.075 23.6 8.65 21.175Q8.3 20.825 7.85 20.825 7.4 20.825 7.05 21.175L7.05 21.175Q6.7 21.525 6.7 21.975 6.7 22.425 7.05 22.775L7.05 22.775 11.175 26.9Q11.525 27.25 11.963 27.425 12.4 27.6 12.875 27.6L12.875 27.6Q13.35 27.6 13.788 27.425 14.225 27.25 14.575 26.9L14.575 26.9 18.7 22.775Q19.05 22.425 19.05 21.975 19.05 21.525 18.7 21.175L18.7 21.175Q18.35 20.825 17.9 20.825 17.45 20.825 17.1 21.175L17.1 21.175 14.675 23.6 14.675 14.675 23.6 14.675 21.175 17.1Q20.825 17.45 20.825 17.9 20.825 18.35 21.175 18.7L21.175 18.7Q21.525 19.05 21.975 19.05 22.425 19.05 22.775 18.7L22.775 18.7 26.9 14.575Q27.25 14.225 27.425 13.788 27.6 13.35 27.6 12.875L27.6 12.875Q27.6 12.4 27.425 11.963 27.25 11.525 26.9 11.175L26.9 11.175 22.775 7.05Q22.425 6.7 21.975 6.7 21.525 6.7 21.175 7.05L21.175 7.05Q20.825 7.4 20.825 7.85 20.825 8.3 21.175 8.65L21.175 8.65 23.6 11.075 14.675 11.075 14.675 2.175 17.1 4.6Q17.45 4.95 17.9 4.95 18.35 4.95 18.7 4.6L18.7 4.6Q19.05 4.25 19.05 3.8 19.05 3.35 18.7 3L18.7 3 14.575 -1.125Q14.225 -1.475 13.788 -1.65 13.35 -1.825 12.875 -1.825L12.875 -1.825Q12.4 -1.825 11.963 -1.65 11.525 -1.475 11.175 -1.125L11.175 -1.125 7.05 3Q6.7 3.35 6.7 3.8 6.7 4.25 7.05 4.6L7.05 4.6Q7.4 4.95 7.85 4.95 8.3 4.95 8.65 4.6L8.65 4.6 11.075 2.175 11.075 11.075 2.175 11.075 4.6 8.65Q4.95 8.3 4.95 7.85 4.95 7.4 4.6 7.05L4.6 7.05Q4.25 6.7 3.8 6.7 3.35 6.7 3 7.05L3 7.05 -1.125 11.175Q-1.475 11.525 -1.65 11.963 -1.825 12.4 -1.825 12.875L-1.825 12.875Q-1.825 13.35 -1.65 13.788 -1.475 14.225 -1.125 14.575L-1.125 14.575 3 18.7Q3.35 19.05 3.8 19.05 4.25 19.05 4.6 18.7L4.6 18.7Q4.95 18.35 4.95 17.9 4.95 17.45 4.6 17.1L4.6 17.1 2.175 14.675 11.075 14.675 11.075 23.6 8.65 21.175Q8.3 20.825 7.85 20.825 7.4 20.825 7.05 21.175L7.05 21.175Q6.7 21.525 6.7 21.975 6.7 22.425 7.05 22.775L7.05 22.775 11.175 26.9Q11.525 27.25 11.963 27.425 12.4 27.6 12.875 27.6L12.875 27.6Q13.35 27.6 13.788 27.425 14.225 27.25 14.575 26.9L14.575 26.9 18.7 22.775Q19.05 22.425 19.05 21.975 19.05 21.525 18.7 21.175L18.7 21.175Q18.35 20.825 17.9 20.825 17.45 20.825 17.1 21.175L17.1 21.175 14.675 23.6 14.675 14.675 23.6 14.675 21.175 17.1Q20.825 17.45 20.825 17.9 20.825 18.35 21.175 18.7L21.175 18.7Q21.525 19.05 21.975 19.05 22.425 19.05 22.775 18.7L22.775 18.7 26.9 14.575Q27.25 14.225 27.425 13.788 27.6 13.35 27.6 12.875L27.6 12.875Q27.6 12.4 27.425 11.963 27.25 11.525 26.9 11.175L26.9 11.175 22.775 7.05Q22.425 6.7 21.975 6.7 21.525 6.7 21.175 7.05L21.175 7.05Q20.825 7.4 20.825 7.85 20.825 8.3 21.175 8.65L21.175 8.65 23.6 11.075 14.675 11.075 14.675 2.175 17.1 4.6Q17.45 4.95 17.9 4.95 18.35 4.95 18.7 4.6L18.7 4.6Q19.05 4.25 19.05 3.8 19.05 3.35 18.7 3L18.7 3 14.575 -1.125Q14.225 -1.475 13.788 -1.65 13.35 -1.825 12.875 -1.825L12.875 -1.825Q12.4 -1.825 11.963 -1.65 11.525 -1.475 11.175 -1.125L11.175 -1.125 7.05 3Q6.7 3.35 6.7 3.8 6.7 4.25 7.05 4.6L7.05 4.6Q7.4 4.95 7.85 4.95 8.3 4.95 8.65 4.6L8.65 4.6 11.075 2.175 11.075 11.075 2.175 11.075 4.6 8.65Q4.95 8.3 4.95 7.85 4.95 7.4 4.6 7.05L4.6 7.05Q4.25 6.7 3.8 6.7 3.35 6.7 3 7.05L3 7.05 -1.125 11.175Q-1.475 11.525 -1.65 11.963 -1.825 12.4 -1.825 12.875L-1.825 12.875Q-1.825 13.35 -1.65 13.788 -1.475 14.225 -1.125 14.575L-1.125 14.575 3 18.7Q3.35 19.05 3.8 19.05 4.25 19.05 4.6 18.7L4.6 18.7Q4.95 18.35 4.95 17.9 4.95 17.45 4.6 17.1L4.6 17.1 2.175 14.675 11.075 14.675 11.075 23.6 8.65 21.175Z" transform="scale(0.75)" fill="currentColor"/>
</svg>
