<svg xmlns="http://www.w3.org/2000/svg" viewBox="0 0 24 24">
  <path d="M12 21L12 21 12 21Q11.625 21 11.263 20.84 10.9 20.675 10.6 20.4L10.6 20.4 8.525 18.325Q8.225 18.025 8.225 17.613 8.225 17.2 8.525 16.9L8.525 16.9Q8.825 16.6 9.238 16.6 9.65 16.6 9.95 16.9L9.95 16.9 12 18.95 14.05 16.9Q14.35 16.6 14.763 16.6 15.175 16.6 15.475 16.9L15.475 16.9Q15.775 17.2 15.775 17.613 15.775 18.025 15.475 18.325L15.475 18.325 13.4 20.4Q13.1 20.675 12.738 20.84 12.375 21 12 21ZM12 16.575L12 16.575 12 16.575Q11.625 16.575 11.263 16.413 10.9 16.25 10.6 15.95L10.6 15.95 5.525 10.875Q5.225 10.575 5.225 10.163 5.225 9.75 5.525 9.45L5.525 9.45Q5.825 9.15 6.238 9.15 6.65 9.15 6.95 9.45L6.95 9.45 12 14.5 17.05 9.45Q17.35 9.15 17.763 9.15 18.175 9.15 18.475 9.45L18.475 9.45Q18.775 9.75 18.775 10.163 18.775 10.575 18.475 10.875L18.475 10.875 13.4 15.95Q13.1 16.25 12.738 16.413 12.375 16.575 12 16.575ZM12 12.15L12 12.15 12 12.15Q11.625 12.15 11.263 11.988 10.9 11.825 10.6 11.525L10.6 11.525 2.525 3.45Q2.225 3.15 2.225 2.738 2.225 2.325 2.525 2.025L2.525 2.025Q2.825 1.725 3.238 1.725 3.65 1.725 3.95 2.025L3.95 2.025 12 10.075 20.05 2.025Q20.35 1.725 20.763 1.725 21.175 1.725 21.475 2.025L21.475 2.025Q21.775 2.325 21.775 2.738 21.775 3.15 21.475 3.45L21.475 3.45 13.4 11.525Q13.1 11.825 12.738 11.988 12.375 12.15 12 12.15Z" fill="currentColor"/>
</svg>
